# MagicaVoxel @ Ephtracy

# group
o 

# material
mtllib bird_level_01.mtl
usemtl palette

# normals
vn -1 0 0
vn 1 0 0
vn 0 0 1
vn 0 0 -1
vn 0 -1 0
vn 0 1 0

# texcoords
vt 0.00195313 0.5
vt 0.0332031 0.5
vt 0.126953 0.5
vt 0.162109 0.5

# verts
v -0.5 0.6 -2.98023e-08
v -0.5 0.6 -0.1
v -0.5 0.7 -2.98023e-08
v -0.5 0.7 -0.1
v -0.4 0.3 0.3
v -0.4 0.3 0.2
v -0.4 0.3 -2.98023e-08
v -0.4 0.3 -0.1
v -0.4 0.3 -0.3
v -0.4 0.3 -0.4
v -0.4 0.5 0.3
v -0.4 0.5 0.2
v -0.4 0.5 -0.3
v -0.4 0.5 -0.4
v -0.4 0.6 -2.98023e-08
v -0.4 0.6 -0.1
v -0.3 0.3 0.1
v -0.3 0.3 -2.98023e-08
v -0.3 0.3 -0.1
v -0.3 0.3 -0.2
v -0.3 0.6 0.1
v -0.3 0.6 -2.98023e-08
v -0.3 0.6 -0.1
v -0.3 0.6 -0.2
v -0.2 0.3 0.2
v -0.2 0.3 0.1
v -0.2 0.3 -0.2
v -0.2 0.3 -0.3
v -0.2 0.5 0.2
v -0.2 0.5 -0.3
v -0.2 0.6 0.2
v -0.2 0.6 0.1
v -0.2 0.6 -0.2
v -0.2 0.6 -0.3
v -0.1 0.6 0.2
v -0.1 0.6 -0.3
v -0.1 0.7 0.2
v -0.1 0.7 -0.3
v -0.1 1.1 0.2
v -0.1 1.1 -0.3
v 5.96046e-08 0 0.3
v 5.96046e-08 0 -2.98023e-08
v 5.96046e-08 0 -0.1
v 5.96046e-08 0 -0.4
v 5.96046e-08 0.1 0.3
v 5.96046e-08 0.1 0.2
v 5.96046e-08 0.1 0.1
v 5.96046e-08 0.1 -2.98023e-08
v 5.96046e-08 0.1 -0.1
v 5.96046e-08 0.1 -0.2
v 5.96046e-08 0.1 -0.3
v 5.96046e-08 0.1 -0.4
v 5.96046e-08 0.3 0.2
v 5.96046e-08 0.3 0.1
v 5.96046e-08 0.3 -0.2
v 5.96046e-08 0.3 -0.3
v -0.4 0.6 -2.98023e-08
v -0.4 0.6 -0.1
v -0.4 0.7 -2.98023e-08
v -0.4 0.7 -0.1
v 0.1 0.1 0.2
v 0.1 0.1 0.1
v 0.1 0.1 -0.2
v 0.1 0.1 -0.3
v 0.1 0.3 0.2
v 0.1 0.3 0.1
v 0.1 0.3 -0.2
v 0.1 0.3 -0.3
v 0.2 0 0.2
v 0.2 0 0.1
v 0.2 0 -0.2
v 0.2 0 -0.3
v 0.2 0.1 0.2
v 0.2 0.1 0.1
v 0.2 0.1 -0.2
v 0.2 0.1 -0.3
v 0.3 0 0.3
v 0.3 0 0.2
v 0.3 0 0.1
v 0.3 0 -2.98023e-08
v 0.3 0 -0.1
v 0.3 0 -0.2
v 0.3 0 -0.3
v 0.3 0 -0.4
v 0.3 0.1 0.3
v 0.3 0.1 0.2
v 0.3 0.1 0.1
v 0.3 0.1 -2.98023e-08
v 0.3 0.1 -0.1
v 0.3 0.1 -0.2
v 0.3 0.1 -0.3
v 0.3 0.1 -0.4
v 0.3 0.3 0.3
v 0.3 0.3 0.2
v 0.3 0.3 -0.3
v 0.3 0.3 -0.4
v 0.3 0.5 0.3
v 0.3 0.5 0.2
v 0.3 0.5 -0.3
v 0.3 0.5 -0.4
v 0.4 0.3 0.2
v 0.4 0.3 -0.3
v 0.4 0.6 0.2
v 0.4 0.6 -0.3
v 0.4 0.7 0.2
v 0.4 0.7 0.1
v 0.4 0.7 -0.2
v 0.4 0.7 -0.3
v 0.4 0.8 0.1
v 0.4 0.8 -0.2
v 0.4 1.1 0.2
v 0.4 1.1 -0.3
v 0.5 0.7 0.1
v 0.5 0.7 -0.2
v 0.5 0.8 0.1
v 0.5 0.8 -0.2
v -0.4 0.3 0.3
v -0.4 0.5 0.3
v 5.96046e-08 0 0.3
v 5.96046e-08 0.1 0.3
v 0.3 0 0.3
v 0.3 0.1 0.3
v 0.3 0.3 0.3
v 0.3 0.5 0.3
v -0.2 0.5 0.2
v -0.2 0.6 0.2
v -0.1 0.6 0.2
v -0.1 0.7 0.2
v -0.1 1.1 0.2
v 5.96046e-08 0.1 0.2
v 5.96046e-08 0.3 0.2
v 0.1 0.1 0.2
v 0.1 0.3 0.2
v 0.1 0.8 0.2
v 0.1 0.9 0.2
v 0.1 1 0.2
v 0.2 0.9 0.2
v 0.2 1 0.2
v 0.3 0.3 0.2
v 0.3 0.5 0.2
v 0.3 0.8 0.2
v 0.3 1 0.2
v 0.4 0.3 0.2
v 0.4 0.6 0.2
v 0.4 0.7 0.2
v 0.4 1.1 0.2
v -0.3 0.3 0.1
v -0.3 0.6 0.1
v -0.2 0.3 0.1
v -0.2 0.6 0.1
v 0.2 0 0.1
v 0.2 0.1 0.1
v 0.3 0 0.1
v 0.3 0.1 0.1
v 0.4 0.7 0.1
v 0.4 0.8 0.1
v 0.5 0.7 0.1
v 0.5 0.8 0.1
v -0.5 0.6 -2.98023e-08
v -0.5 0.7 -2.98023e-08
v -0.4 0.3 -2.98023e-08
v -0.4 0.6 -2.98023e-08
v -0.4 0.7 -2.98023e-08
v -0.3 0.3 -2.98023e-08
v -0.3 0.6 -2.98023e-08
v 5.96046e-08 0 -0.1
v 5.96046e-08 0.1 -0.1
v 0.3 0 -0.1
v 0.3 0.1 -0.1
v 5.96046e-08 0.1 -0.2
v 5.96046e-08 0.3 -0.2
v 0.1 0.1 -0.2
v 0.1 0.3 -0.2
v -0.4 0.3 -0.3
v -0.4 0.5 -0.3
v -0.2 0.3 -0.3
v -0.2 0.5 -0.3
v 0.2 0 -0.3
v 0.2 0.1 -0.3
v 0.3 0 -0.3
v 0.3 0.1 -0.3
v -0.4 0.3 0.2
v -0.4 0.5 0.2
v -0.2 0.3 0.2
v -0.2 0.5 0.2
v 0.2 0 0.2
v 0.2 0.1 0.2
v 0.3 0 0.2
v 0.3 0.1 0.2
v 5.96046e-08 0.1 0.1
v 5.96046e-08 0.3 0.1
v 0.1 0.1 0.1
v 0.1 0.3 0.1
v 5.96046e-08 0 -2.98023e-08
v 5.96046e-08 0.1 -2.98023e-08
v 0.3 0 -2.98023e-08
v 0.3 0.1 -2.98023e-08
v -0.5 0.6 -0.1
v -0.5 0.7 -0.1
v -0.4 0.3 -0.1
v -0.4 0.6 -0.1
v -0.4 0.7 -0.1
v -0.3 0.3 -0.1
v -0.3 0.6 -0.1
v -0.3 0.3 -0.2
v -0.3 0.6 -0.2
v -0.2 0.3 -0.2
v -0.2 0.6 -0.2
v 0.2 0 -0.2
v 0.2 0.1 -0.2
v 0.3 0 -0.2
v 0.3 0.1 -0.2
v 0.4 0.7 -0.2
v 0.4 0.8 -0.2
v 0.5 0.7 -0.2
v 0.5 0.8 -0.2
v -0.2 0.5 -0.3
v -0.2 0.6 -0.3
v -0.1 0.6 -0.3
v -0.1 0.7 -0.3
v -0.1 1.1 -0.3
v 5.96046e-08 0.1 -0.3
v 5.96046e-08 0.3 -0.3
v 0.1 0.1 -0.3
v 0.1 0.3 -0.3
v 0.1 0.8 -0.3
v 0.1 0.9 -0.3
v 0.1 1 -0.3
v 0.2 0.9 -0.3
v 0.2 1 -0.3
v 0.3 0.3 -0.3
v 0.3 0.5 -0.3
v 0.3 0.8 -0.3
v 0.3 1 -0.3
v 0.4 0.3 -0.3
v 0.4 0.6 -0.3
v 0.4 0.7 -0.3
v 0.4 1.1 -0.3
v -0.4 0.3 -0.4
v -0.4 0.5 -0.4
v 5.96046e-08 0 -0.4
v 5.96046e-08 0.1 -0.4
v 0.3 0 -0.4
v 0.3 0.1 -0.4
v 0.3 0.3 -0.4
v 0.3 0.5 -0.4
v 5.96046e-08 0 0.3
v 0.3 0 0.3
v 0.2 0 0.2
v 0.3 0 0.2
v 0.2 0 0.1
v 0.3 0 0.1
v 5.96046e-08 0 -2.98023e-08
v 0.3 0 -2.98023e-08
v 5.96046e-08 0 -0.1
v 0.3 0 -0.1
v 0.2 0 -0.2
v 0.3 0 -0.2
v 0.2 0 -0.3
v 0.3 0 -0.3
v 5.96046e-08 0 -0.4
v 0.3 0 -0.4
v -0.4 0.3 0.3
v 0.3 0.3 0.3
v -0.4 0.3 0.2
v -0.2 0.3 0.2
v 5.96046e-08 0.3 0.2
v 0.1 0.3 0.2
v 0.3 0.3 0.2
v 0.4 0.3 0.2
v -0.3 0.3 0.1
v -0.2 0.3 0.1
v 5.96046e-08 0.3 0.1
v 0.1 0.3 0.1
v -0.4 0.3 -2.98023e-08
v -0.3 0.3 -2.98023e-08
v -0.4 0.3 -0.1
v -0.3 0.3 -0.1
v -0.3 0.3 -0.2
v -0.2 0.3 -0.2
v 5.96046e-08 0.3 -0.2
v 0.1 0.3 -0.2
v -0.4 0.3 -0.3
v -0.2 0.3 -0.3
v 5.96046e-08 0.3 -0.3
v 0.1 0.3 -0.3
v 0.3 0.3 -0.3
v 0.4 0.3 -0.3
v -0.4 0.3 -0.4
v 0.3 0.3 -0.4
v -0.5 0.6 -2.98023e-08
v -0.4 0.6 -2.98023e-08
v -0.5 0.6 -0.1
v -0.4 0.6 -0.1
v 0.4 0.7 0.1
v 0.5 0.7 0.1
v 0.4 0.7 -0.2
v 0.5 0.7 -0.2
v 5.96046e-08 0.1 0.3
v 0.3 0.1 0.3
v 5.96046e-08 0.1 0.2
v 0.1 0.1 0.2
v 0.2 0.1 0.2
v 0.3 0.1 0.2
v 5.96046e-08 0.1 0.1
v 0.1 0.1 0.1
v 0.2 0.1 0.1
v 0.3 0.1 0.1
v 5.96046e-08 0.1 -2.98023e-08
v 0.3 0.1 -2.98023e-08
v 5.96046e-08 0.1 -0.1
v 0.3 0.1 -0.1
v 5.96046e-08 0.1 -0.2
v 0.1 0.1 -0.2
v 0.2 0.1 -0.2
v 0.3 0.1 -0.2
v 5.96046e-08 0.1 -0.3
v 0.1 0.1 -0.3
v 0.2 0.1 -0.3
v 0.3 0.1 -0.3
v 5.96046e-08 0.1 -0.4
v 0.3 0.1 -0.4
v -0.4 0.5 0.3
v 0.3 0.5 0.3
v -0.4 0.5 0.2
v -0.2 0.5 0.2
v 0.3 0.5 0.2
v -0.4 0.5 -0.3
v -0.2 0.5 -0.3
v 0.3 0.5 -0.3
v -0.4 0.5 -0.4
v 0.3 0.5 -0.4
v -0.2 0.6 0.2
v -0.1 0.6 0.2
v -0.3 0.6 0.1
v -0.2 0.6 0.1
v -0.4 0.6 -2.98023e-08
v -0.3 0.6 -2.98023e-08
v -0.4 0.6 -0.1
v -0.3 0.6 -0.1
v -0.3 0.6 -0.2
v -0.2 0.6 -0.2
v -0.2 0.6 -0.3
v -0.1 0.6 -0.3
v -0.5 0.7 -2.98023e-08
v -0.4 0.7 -2.98023e-08
v -0.5 0.7 -0.1
v -0.4 0.7 -0.1
v 0.4 0.8 0.1
v 0.5 0.8 0.1
v 0.4 0.8 -0.2
v 0.5 0.8 -0.2
v -0.1 1.1 0.2
v 0.4 1.1 0.2
v -0.1 1.1 -0.3
v 0.4 1.1 -0.3

# faces
f 3/3/1 2/3/1 1/3/1
f 4/3/1 2/3/1 3/3/1
f 11/3/1 6/3/1 5/3/1
f 12/3/1 6/3/1 11/3/1
f 13/3/1 10/3/1 9/3/1
f 14/3/1 10/3/1 13/3/1
f 15/3/1 8/3/1 7/3/1
f 16/3/1 8/3/1 15/3/1
f 21/3/1 18/3/1 17/3/1
f 22/3/1 18/3/1 21/3/1
f 23/3/1 20/3/1 19/3/1
f 24/3/1 20/3/1 23/3/1
f 29/3/1 26/3/1 25/3/1
f 30/3/1 28/3/1 27/3/1
f 31/3/1 26/3/1 29/3/1
f 32/3/1 26/3/1 31/3/1
f 33/3/1 30/3/1 27/3/1
f 34/3/1 30/3/1 33/3/1
f 37/4/1 36/4/1 35/4/1
f 38/4/1 36/4/1 37/4/1
f 39/3/1 38/3/1 37/3/1
f 40/3/1 38/3/1 39/3/1
f 45/2/1 42/2/1 41/2/1
f 46/2/1 42/2/1 45/2/1
f 47/2/1 42/2/1 46/2/1
f 48/2/1 42/2/1 47/2/1
f 49/2/1 44/2/1 43/2/1
f 50/2/1 44/2/1 49/2/1
f 51/2/1 44/2/1 50/2/1
f 52/2/1 44/2/1 51/2/1
f 53/2/1 47/2/1 46/2/1
f 54/2/1 47/2/1 53/2/1
f 55/2/1 51/2/1 50/2/1
f 56/2/1 51/2/1 55/2/1
f 57/3/2 58/3/2 59/3/2
f 59/3/2 58/3/2 60/3/2
f 61/2/2 62/2/2 65/2/2
f 65/2/2 62/2/2 66/2/2
f 63/2/2 64/2/2 67/2/2
f 67/2/2 64/2/2 68/2/2
f 69/2/2 70/2/2 73/2/2
f 73/2/2 70/2/2 74/2/2
f 71/2/2 72/2/2 75/2/2
f 75/2/2 72/2/2 76/2/2
f 77/2/2 78/2/2 85/2/2
f 85/2/2 78/2/2 86/2/2
f 79/2/2 80/2/2 87/2/2
f 87/2/2 80/2/2 88/2/2
f 81/2/2 82/2/2 89/2/2
f 89/2/2 82/2/2 90/2/2
f 83/2/2 84/2/2 91/2/2
f 91/2/2 84/2/2 92/2/2
f 93/3/2 94/3/2 97/3/2
f 97/3/2 94/3/2 98/3/2
f 95/3/2 96/3/2 99/3/2
f 99/3/2 96/3/2 100/3/2
f 101/3/2 102/3/2 103/3/2
f 103/3/2 102/3/2 104/3/2
f 103/4/2 104/4/2 105/4/2
f 105/4/2 104/4/2 106/4/2
f 106/4/2 104/4/2 107/4/2
f 107/4/2 104/4/2 108/4/2
f 105/3/2 106/3/2 109/3/2
f 107/3/2 108/3/2 110/3/2
f 105/3/2 109/3/2 111/3/2
f 109/3/2 110/3/2 111/3/2
f 110/3/2 108/3/2 112/3/2
f 111/3/2 110/3/2 112/3/2
f 113/2/2 114/2/2 115/2/2
f 115/2/2 114/2/2 116/2/2
f 121/2/3 120/2/3 119/2/3
f 122/2/3 120/2/3 121/2/3
f 123/3/3 118/3/3 117/3/3
f 124/3/3 118/3/3 123/3/3
f 127/3/3 126/3/3 125/3/3
f 132/2/3 131/2/3 130/2/3
f 133/2/3 131/2/3 132/2/3
f 134/3/3 129/3/3 128/3/3
f 135/3/3 129/3/3 134/3/3
f 136/3/3 129/3/3 135/3/3
f 137/1/3 135/1/3 134/1/3
f 137/4/3 136/4/3 135/4/3
f 138/3/3 129/3/3 136/3/3
f 138/4/3 136/4/3 137/4/3
f 140/3/3 127/3/3 125/3/3
f 141/1/3 137/1/3 134/1/3
f 141/3/3 134/3/3 128/3/3
f 141/1/3 138/1/3 137/1/3
f 142/3/3 129/3/3 138/3/3
f 142/1/3 138/1/3 141/1/3
f 143/3/3 140/3/3 139/3/3
f 144/4/3 128/4/3 127/4/3
f 144/3/3 140/3/3 143/3/3
f 144/3/3 127/3/3 140/3/3
f 145/3/3 141/3/3 128/3/3
f 145/4/3 128/4/3 144/4/3
f 145/3/3 142/3/3 141/3/3
f 146/3/3 129/3/3 142/3/3
f 146/3/3 142/3/3 145/3/3
f 149/3/3 148/3/3 147/3/3
f 150/3/3 148/3/3 149/3/3
f 153/2/3 152/2/3 151/2/3
f 154/2/3 152/2/3 153/2/3
f 157/2/3 156/2/3 155/2/3
f 158/2/3 156/2/3 157/2/3
f 162/3/3 160/3/3 159/3/3
f 163/3/3 160/3/3 162/3/3
f 164/3/3 162/3/3 161/3/3
f 165/3/3 162/3/3 164/3/3
f 168/2/3 167/2/3 166/2/3
f 169/2/3 167/2/3 168/2/3
f 172/2/3 171/2/3 170/2/3
f 173/2/3 171/2/3 172/2/3
f 176/3/3 175/3/3 174/3/3
f 177/3/3 175/3/3 176/3/3
f 180/2/3 179/2/3 178/2/3
f 181/2/3 179/2/3 180/2/3
f 182/3/4 183/3/4 184/3/4
f 184/3/4 183/3/4 185/3/4
f 186/2/4 187/2/4 188/2/4
f 188/2/4 187/2/4 189/2/4
f 190/2/4 191/2/4 192/2/4
f 192/2/4 191/2/4 193/2/4
f 194/2/4 195/2/4 196/2/4
f 196/2/4 195/2/4 197/2/4
f 198/3/4 199/3/4 201/3/4
f 201/3/4 199/3/4 202/3/4
f 200/3/4 201/3/4 203/3/4
f 203/3/4 201/3/4 204/3/4
f 205/3/4 206/3/4 207/3/4
f 207/3/4 206/3/4 208/3/4
f 209/2/4 210/2/4 211/2/4
f 211/2/4 210/2/4 212/2/4
f 213/2/4 214/2/4 215/2/4
f 215/2/4 214/2/4 216/2/4
f 217/3/4 218/3/4 219/3/4
f 222/2/4 223/2/4 224/2/4
f 224/2/4 223/2/4 225/2/4
f 220/3/4 221/3/4 226/3/4
f 226/3/4 221/3/4 227/3/4
f 227/3/4 221/3/4 228/3/4
f 226/1/4 227/1/4 229/1/4
f 227/4/4 228/4/4 229/4/4
f 228/3/4 221/3/4 230/3/4
f 229/4/4 228/4/4 230/4/4
f 217/3/4 219/3/4 232/3/4
f 226/1/4 229/1/4 233/1/4
f 220/3/4 226/3/4 233/3/4
f 229/1/4 230/1/4 233/1/4
f 230/3/4 221/3/4 234/3/4
f 233/1/4 230/1/4 234/1/4
f 231/3/4 232/3/4 235/3/4
f 219/4/4 220/4/4 236/4/4
f 235/3/4 232/3/4 236/3/4
f 232/3/4 219/3/4 236/3/4
f 220/3/4 233/3/4 237/3/4
f 236/4/4 220/4/4 237/4/4
f 233/3/4 234/3/4 237/3/4
f 234/3/4 221/3/4 238/3/4
f 237/3/4 234/3/4 238/3/4
f 241/2/4 242/2/4 243/2/4
f 243/2/4 242/2/4 244/2/4
f 239/3/4 240/3/4 245/3/4
f 245/3/4 240/3/4 246/3/4
f 249/2/5 248/2/5 247/2/5
f 250/2/5 248/2/5 249/2/5
f 251/2/5 249/2/5 247/2/5
f 253/2/5 251/2/5 247/2/5
f 253/2/5 252/2/5 251/2/5
f 254/2/5 252/2/5 253/2/5
f 257/2/5 256/2/5 255/2/5
f 258/2/5 256/2/5 257/2/5
f 259/2/5 257/2/5 255/2/5
f 261/2/5 259/2/5 255/2/5
f 261/2/5 260/2/5 259/2/5
f 262/2/5 260/2/5 261/2/5
f 265/3/5 264/3/5 263/3/5
f 266/3/5 264/3/5 265/3/5
f 267/3/5 264/3/5 266/3/5
f 268/3/5 264/3/5 267/3/5
f 269/3/5 264/3/5 268/3/5
f 272/3/5 267/3/5 266/3/5
f 273/3/5 267/3/5 272/3/5
f 274/3/5 270/3/5 269/3/5
f 274/3/5 269/3/5 268/3/5
f 276/3/5 273/3/5 272/3/5
f 276/3/5 274/3/5 273/3/5
f 276/3/5 272/3/5 271/3/5
f 277/3/5 276/3/5 275/3/5
f 278/3/5 274/3/5 276/3/5
f 278/3/5 276/3/5 277/3/5
f 279/3/5 274/3/5 278/3/5
f 280/3/5 274/3/5 279/3/5
f 281/3/5 274/3/5 280/3/5
f 282/3/5 270/3/5 274/3/5
f 282/3/5 274/3/5 281/3/5
f 284/3/5 281/3/5 280/3/5
f 285/3/5 281/3/5 284/3/5
f 286/3/5 270/3/5 282/3/5
f 287/3/5 270/3/5 286/3/5
f 288/3/5 270/3/5 287/3/5
f 289/3/5 285/3/5 284/3/5
f 289/3/5 284/3/5 283/3/5
f 289/3/5 287/3/5 286/3/5
f 289/3/5 286/3/5 285/3/5
f 290/3/5 287/3/5 289/3/5
f 293/3/5 292/3/5 291/3/5
f 294/3/5 292/3/5 293/3/5
f 297/2/5 296/2/5 295/2/5
f 298/2/5 296/2/5 297/2/5
f 299/2/6 300/2/6 301/2/6
f 301/2/6 300/2/6 302/2/6
f 302/2/6 300/2/6 303/2/6
f 303/2/6 300/2/6 304/2/6
f 302/2/6 303/2/6 306/2/6
f 306/2/6 303/2/6 307/2/6
f 305/2/6 306/2/6 309/2/6
f 307/2/6 308/2/6 309/2/6
f 306/2/6 307/2/6 309/2/6
f 309/2/6 308/2/6 310/2/6
f 311/2/6 312/2/6 313/2/6
f 313/2/6 312/2/6 314/2/6
f 314/2/6 312/2/6 315/2/6
f 315/2/6 312/2/6 316/2/6
f 314/2/6 315/2/6 318/2/6
f 318/2/6 315/2/6 319/2/6
f 317/2/6 318/2/6 321/2/6
f 319/2/6 320/2/6 321/2/6
f 318/2/6 319/2/6 321/2/6
f 321/2/6 320/2/6 322/2/6
f 323/3/6 324/3/6 325/3/6
f 325/3/6 324/3/6 326/3/6
f 326/3/6 324/3/6 327/3/6
f 328/3/6 329/3/6 331/3/6
f 329/3/6 330/3/6 331/3/6
f 331/3/6 330/3/6 332/3/6
f 333/3/6 334/3/6 336/3/6
f 335/3/6 336/3/6 338/3/6
f 337/3/6 338/3/6 339/3/6
f 338/3/6 336/3/6 340/3/6
f 339/3/6 338/3/6 340/3/6
f 340/3/6 336/3/6 341/3/6
f 336/3/6 334/3/6 342/3/6
f 341/3/6 336/3/6 342/3/6
f 342/3/6 334/3/6 343/3/6
f 343/3/6 334/3/6 344/3/6
f 345/3/6 346/3/6 347/3/6
f 347/3/6 346/3/6 348/3/6
f 349/2/6 350/2/6 351/2/6
f 351/2/6 350/2/6 352/2/6
f 353/3/6 354/3/6 355/3/6
f 355/3/6 354/3/6 356/3/6
